<svg width="128" height="24" viewBox="0 0 128 24" fill="none" xmlns="http://www.w3.org/2000/svg">
<path d="M4.98057 24C7.73126 24 9.96114 21.7701 9.96114 19.0194C9.96114 16.2687 7.73126 14.0389 4.98057 14.0389C2.22988 14.0389 0 16.2687 0 19.0194C0 21.7701 2.22988 24 4.98057 24Z" fill="#104BE1"/>
<path d="M10.8751 4.07499C8.12402 4.07499 5.89453 6.30449 5.89453 9.05556C5.89453 11.8066 8.12402 14.0361 10.8751 14.0361C13.6262 14.0361 15.8557 11.8066 15.8557 9.05556C15.8557 6.30449 13.6262 4.07499 10.8751 4.07499ZM10.8751 10.6614C9.98926 10.6614 9.27066 9.94283 9.27066 9.05698C9.27066 8.17114 9.98926 7.45254 10.8751 7.45254C11.7609 7.45254 12.4795 8.17114 12.4795 9.05698C12.4795 9.94283 11.7609 10.6614 10.8751 10.6614Z" fill="#104BE1"/>
<path d="M22.6647 4.07499C19.9136 4.07499 17.6841 6.30449 17.6841 9.05556C17.6841 11.8066 19.9136 14.0361 22.6647 14.0361C25.4157 14.0361 27.6452 11.8066 27.6452 9.05556C27.6452 6.30449 25.4157 4.07499 22.6647 4.07499ZM22.6647 11.9073C21.09 11.9073 19.8144 10.6317 19.8144 9.05698C19.8144 7.48231 21.09 6.20669 22.6647 6.20669C24.2393 6.20669 25.5149 7.48231 25.5149 9.05698C25.5149 10.6317 24.2393 11.9073 22.6647 11.9073Z" fill="#104BE1"/>
<path d="M28.233 14.0374C25.4819 14.0374 23.2524 16.2669 23.2524 19.018C23.2524 21.769 25.4819 23.9985 28.233 23.9985C30.9841 23.9985 33.2136 21.769 33.2136 19.018C33.2136 16.2669 30.9841 14.0374 28.233 14.0374ZM28.233 22.4295C26.3494 22.4295 24.8229 20.903 24.8229 19.0194C24.8229 17.1357 26.3494 15.6092 28.233 15.6092C30.1167 15.6092 31.6432 17.1357 31.6432 19.0194C31.6432 20.903 30.1167 22.4295 28.233 22.4295Z" fill="#104BE1"/>
<path d="M16.7699 14.0374C14.0188 14.0374 11.7893 16.2669 11.7893 19.018C11.7893 21.769 14.0188 23.9985 16.7699 23.9985C19.521 23.9985 21.7504 21.769 21.7504 19.018C21.7504 16.2669 19.521 14.0374 16.7699 14.0374ZM16.7699 21.0533C15.6459 21.0533 14.736 20.1433 14.736 19.0194C14.736 17.8954 15.6459 16.9855 16.7699 16.9855C17.8938 16.9855 18.8038 17.8954 18.8038 19.0194C18.8038 20.1433 17.8938 21.0533 16.7699 21.0533Z" fill="#104BE1"/>
<path d="M38.9692 5.62258H43.8563V7.82798H43.93C44.4927 7.04419 45.2042 6.38937 46.0617 5.86212C46.9192 5.33486 47.9113 5.07265 49.0381 5.07265C50.3605 5.07265 51.4689 5.39723 52.3632 6.04637C53.2576 6.69552 53.8755 7.42404 54.2185 8.23334C54.4396 7.84215 54.733 7.45522 55.1001 7.07537C55.4672 6.69552 55.9023 6.35819 56.4055 6.0648C56.9072 5.77141 57.4529 5.53187 58.0411 5.34762C58.6293 5.16336 59.2544 5.07265 59.9148 5.07265C61.9487 5.07265 63.5659 5.75298 64.7664 7.11222C65.9669 8.47146 66.5679 10.4756 66.5679 13.1204V23.2261H61.6072V13.2664C61.6072 12.7519 61.5519 12.2685 61.4413 11.815C61.3308 11.3614 61.1536 10.9575 60.9084 10.6017C60.6632 10.2474 60.3514 9.96534 59.9715 9.75699C59.5917 9.54864 59.1452 9.44518 58.6307 9.44518C58.1899 9.44518 57.7676 9.53164 57.3622 9.70172C56.9583 9.87322 56.6025 10.1368 56.2963 10.4912C55.9902 10.8469 55.7393 11.2934 55.5423 11.832C55.3453 12.3706 55.2489 13.0212 55.2489 13.7794V23.2247H50.2882V13.2649C50.2882 12.1622 50.0246 11.2495 49.4987 10.5266C48.9715 9.80377 48.243 9.44234 47.3118 9.44234C46.2828 9.44234 45.4621 9.81652 44.8498 10.5635C44.2375 11.3104 43.9314 12.3819 43.9314 13.7794V23.2247H38.9707V5.62258H38.9692Z" fill="#104BE1"/>
<path d="M86.5829 23.2262H81.805V21.0208H81.6576C81.0935 21.7805 80.3593 22.4353 79.4522 22.9867C78.5451 23.538 77.3701 23.813 75.9244 23.813C75.0669 23.813 74.1655 23.6344 73.223 23.2801C72.279 22.9257 71.4158 22.3673 70.6321 21.6076C69.8483 20.8479 69.1991 19.8742 68.6846 18.6864C68.1701 17.4987 67.9136 16.0714 67.9136 14.4046C67.9136 12.9844 68.1404 11.7031 68.5939 10.5636C69.0475 9.42404 69.6598 8.45032 70.4308 7.64244C71.2018 6.83454 72.0905 6.21516 73.0954 5.78712C74.1003 5.35908 75.1662 5.14365 76.293 5.14365C76.979 5.14365 77.5983 5.22302 78.1483 5.38318C78.6996 5.54334 79.1957 5.75027 79.6365 6.00823C80.0773 6.26477 80.4628 6.55958 80.7945 6.88982C81.1247 7.22006 81.4124 7.55739 81.6576 7.90039H81.805V5.62129H86.5829V23.2248V23.2262ZM72.9494 14.4429C72.9494 15.0807 73.0415 15.7057 73.2244 16.3166C73.4086 16.9289 73.6836 17.4746 74.0507 17.9522C74.4178 18.4299 74.8827 18.8097 75.4468 19.0918C76.0095 19.3738 76.6841 19.5142 77.4679 19.5142C78.0561 19.5142 78.6132 19.3923 79.1404 19.1471C79.6677 18.9019 80.1326 18.5589 80.5365 18.1181C80.9404 17.6773 81.265 17.1444 81.5102 16.5193C81.7554 15.8943 81.8773 15.2153 81.8773 14.4797C81.8773 13.7441 81.7668 13.0227 81.5471 12.3849C81.326 11.7485 81.0198 11.2085 80.6286 10.7677C80.236 10.3269 79.7711 9.9839 79.2325 9.7387C78.6939 9.49349 78.1171 9.3716 77.5048 9.3716C76.721 9.3716 76.0463 9.51901 75.4836 9.8124C74.9195 10.1058 74.449 10.4927 74.0691 10.9704C73.6893 11.448 73.4072 11.9866 73.2244 12.5876C73.0401 13.1885 72.9494 13.8065 72.9494 14.4429Z" fill="#104BE1"/>
<path d="M88.1342 5.62263H90.2659V2.69405e-06H95.2266V5.62263H99.3795V9.81232H95.2266V16.6482C95.2266 17.6772 95.3981 18.3703 95.7411 18.7246C96.0841 19.0804 96.6468 19.2575 97.432 19.2575C97.775 19.2575 98.1365 19.2335 98.5163 19.1838C98.8962 19.1357 99.2448 19.062 99.5637 18.9627V23.005C99.0492 23.1524 98.4738 23.2686 97.836 23.3537C97.1982 23.4387 96.6227 23.4827 96.1082 23.4827C95.0098 23.4827 94.0885 23.3353 93.3472 23.0419C92.606 22.7485 92.0036 22.3247 91.5415 21.7733C91.0795 21.222 90.7507 20.5544 90.5565 19.7706C90.3623 18.9868 90.2645 18.1166 90.2645 17.1613V9.8109H88.1328V5.62122L88.1342 5.62263Z" fill="#104BE1"/>
<path d="M101.951 5.62283H106.912V23.2263H101.951V5.62283Z" fill="#104BE1"/>
<path d="M127.56 23.2262H122.783V21.0208H122.635C122.071 21.7805 121.337 22.4353 120.43 22.9867C119.523 23.538 118.348 23.813 116.902 23.813C116.044 23.813 115.143 23.6344 114.201 23.2801C113.257 22.9257 112.393 22.3673 111.61 21.6076C110.826 20.8479 110.177 19.8742 109.662 18.6864C109.148 17.4987 108.891 16.0714 108.891 14.4046C108.891 12.9844 109.118 11.7031 109.571 10.5636C110.025 9.42404 110.637 8.45032 111.408 7.64244C112.179 6.83454 113.068 6.21516 114.073 5.78712C115.078 5.35908 116.144 5.14365 117.27 5.14365C117.956 5.14365 118.576 5.22302 119.126 5.38318C119.677 5.54334 120.173 5.75027 120.614 6.00823C121.055 6.26619 121.44 6.55958 121.772 6.88982C122.102 7.22006 122.39 7.55739 122.635 7.90039H122.783V5.62129H127.56V23.2248V23.2262ZM113.926 14.4429C113.926 15.0807 114.018 15.7057 114.201 16.3166C114.385 16.9289 114.66 17.4746 115.027 17.9522C115.394 18.4299 115.859 18.8097 116.423 19.0918C116.986 19.3738 117.66 19.5142 118.444 19.5142C119.032 19.5142 119.589 19.3923 120.117 19.1471C120.644 18.9019 121.109 18.5589 121.513 18.1181C121.917 17.6773 122.241 17.1444 122.486 16.5193C122.732 15.8943 122.853 15.2153 122.853 14.4797C122.853 13.7441 122.743 13.0227 122.523 12.3849C122.302 11.7485 121.996 11.2085 121.605 10.7677C121.212 10.3269 120.747 9.9839 120.209 9.7387C119.67 9.49349 119.093 9.3716 118.481 9.3716C117.697 9.3716 117.022 9.51901 116.46 9.8124C115.896 10.1058 115.425 10.4927 115.045 10.9704C114.665 11.448 114.383 11.9866 114.201 12.5876C114.016 13.1885 113.926 13.8065 113.926 14.4429Z" fill="#104BE1"/>
</svg>
